<svg width="39" height="39" viewBox="0 0 39 39" fill="none" xmlns="http://www.w3.org/2000/svg">
<g clip-path="url(#clip0_857_327)">
<path d="M19.167 0.301178C8.66949 0.301178 0.166992 8.83737 0.166992 19.3765C0.166992 27.8173 5.60574 34.9467 13.1582 37.4742C14.1082 37.6411 14.4645 37.0688 14.4645 36.5681C14.4645 36.115 14.4407 34.6129 14.4407 33.0153C9.66699 33.8975 8.43199 31.8469 8.05199 30.774C7.83824 30.2255 6.91199 28.5326 6.10449 28.0796C5.43949 27.7219 4.48949 26.8397 6.08074 26.8158C7.57699 26.792 8.64574 28.1988 9.00199 28.7711C10.712 31.6562 13.4432 30.8455 14.5357 30.3448C14.702 29.1049 15.2007 28.2703 15.747 27.7934C11.5195 27.3166 7.10199 25.6713 7.10199 18.375C7.10199 16.3006 7.83824 14.5838 9.04949 13.2485C8.85949 12.7717 8.19449 10.8164 9.23949 8.19358C9.23949 8.19358 10.8307 7.69286 14.4645 10.1488C15.9845 9.71961 17.5995 9.50501 19.2145 9.50501C20.8295 9.50501 22.4445 9.71961 23.9645 10.1488C27.5982 7.66901 29.1895 8.19358 29.1895 8.19358C30.2345 10.8164 29.5695 12.7717 29.3795 13.2485C30.5907 14.5838 31.327 16.2767 31.327 18.375C31.327 25.6952 26.8857 27.3166 22.6582 27.7934C23.347 28.3896 23.9407 29.5341 23.9407 31.3224C23.9407 33.8737 23.917 35.9243 23.917 36.5681C23.917 37.0688 24.2732 37.6649 25.2232 37.4742C28.9953 36.1961 32.2731 33.7624 34.5951 30.5159C36.9171 27.2693 38.1663 23.3733 38.167 19.3765C38.167 8.83737 29.6645 0.301178 19.167 0.301178Z" fill="white"/>
</g>
<defs>
<clipPath id="clip0_857_327">
<rect width="38" height="38.1506" fill="white" transform="translate(0.166992 0.301178)"/>
</clipPath>
</defs>
</svg>
