<svg width="38" height="38" viewBox="0 0 38 38" fill="none" xmlns="http://www.w3.org/2000/svg">
<g clip-path="url(#clip0_172_6)">
<path d="M19 10.5556C17.3298 10.5556 15.6972 11.0508 14.3085 11.9787C12.9198 12.9066 11.8375 14.2254 11.1984 15.7685C10.5592 17.3115 10.392 19.0094 10.7178 20.6474C11.0436 22.2855 11.8479 23.7901 13.0289 24.9711C14.2099 26.1521 15.7145 26.9564 17.3526 27.2822C18.9906 27.608 20.6885 27.4408 22.2315 26.8017C23.7746 26.1625 25.0934 25.0802 26.0213 23.6915C26.9492 22.3028 27.4444 20.6702 27.4444 19C27.4421 16.7611 26.5517 14.6146 24.9686 13.0314C23.3854 11.4483 21.2389 10.5579 19 10.5556ZM19 23.2222C18.1649 23.2222 17.3486 22.9746 16.6543 22.5107C15.9599 22.0467 15.4187 21.3873 15.0992 20.6158C14.7796 19.8443 14.696 18.9953 14.8589 18.1763C15.0218 17.3573 15.4239 16.6049 16.0144 16.0144C16.6049 15.4239 17.3573 15.0218 18.1763 14.8589C18.9953 14.696 19.8443 14.7796 20.6158 15.0992C21.3873 15.4187 22.0467 15.9599 22.5107 16.6543C22.9746 17.3486 23.2222 18.1649 23.2222 19C23.2222 20.1198 22.7774 21.1937 21.9856 21.9856C21.1937 22.7774 20.1198 23.2222 19 23.2222ZM27.4444 0H10.5556C7.75705 0.00325922 5.0741 1.11641 3.09525 3.09525C1.11641 5.0741 0.00325922 7.75705 0 10.5556V27.4444C0.00325922 30.243 1.11641 32.9259 3.09525 34.9047C5.0741 36.8836 7.75705 37.9967 10.5556 38H27.4444C30.243 37.9967 32.9259 36.8836 34.9047 34.9047C36.8836 32.9259 37.9967 30.243 38 27.4444V10.5556C37.9967 7.75705 36.8836 5.0741 34.9047 3.09525C32.9259 1.11641 30.243 0.00325922 27.4444 0ZM33.7778 27.4444C33.7778 29.1241 33.1105 30.7351 31.9228 31.9228C30.7351 33.1105 29.1241 33.7778 27.4444 33.7778H10.5556C8.87585 33.7778 7.26494 33.1105 6.07721 31.9228C4.88948 30.7351 4.22222 29.1241 4.22222 27.4444V10.5556C4.22222 8.87585 4.88948 7.26494 6.07721 6.07721C7.26494 4.88948 8.87585 4.22222 10.5556 4.22222H27.4444C29.1241 4.22222 30.7351 4.88948 31.9228 6.07721C33.1105 7.26494 33.7778 8.87585 33.7778 10.5556V27.4444ZM30.963 9.85185C30.963 10.4086 30.7979 10.9528 30.4886 11.4157C30.1793 11.8786 29.7397 12.2394 29.2253 12.4524C28.711 12.6654 28.145 12.7212 27.599 12.6126C27.053 12.504 26.5514 12.2359 26.1578 11.8422C25.7641 11.4486 25.496 10.947 25.3874 10.401C25.2788 9.85497 25.3346 9.28901 25.5476 8.77467C25.7606 8.26033 26.1214 7.82072 26.5843 7.51142C27.0472 7.20212 27.5914 7.03704 28.1481 7.03704C28.8947 7.03704 29.6106 7.3336 30.1385 7.86148C30.6664 8.38936 30.963 9.10532 30.963 9.85185Z" fill="white"/>
</g>
<defs>
<clipPath id="clip0_172_6">
<rect width="38" height="38" fill="white"/>
</clipPath>
</defs>
</svg>
