<svg width="39" height="39" viewBox="0 0 39 39" fill="none" xmlns="http://www.w3.org/2000/svg">
<g clip-path="url(#clip0_857_323)">
<path d="M0.166992 2.73254C0.166992 1.2232 1.41624 0 2.95762 0H35.3764C36.9177 0 38.167 1.2232 38.167 2.73254V35.4181C38.167 36.9274 36.9177 38.1506 35.3764 38.1506H2.95762C1.41624 38.1506 0.166992 36.9274 0.166992 35.4181V2.73254ZM11.9066 31.9368V14.7094H6.20424V31.9368H11.9066ZM9.05662 12.356C11.0445 12.356 12.2819 11.0351 12.2819 9.38028C12.2462 7.68973 11.0469 6.40453 9.09462 6.40453C7.14237 6.40453 5.86699 7.69211 5.86699 9.38028C5.86699 11.0351 7.10437 12.356 9.01862 12.356H9.05662ZM20.7131 31.9368V22.3157C20.7131 21.8007 20.7511 21.2856 20.9031 20.9184C21.314 19.8908 22.2521 18.8249 23.8291 18.8249C25.893 18.8249 26.7171 20.4034 26.7171 22.7211V31.9368H32.4195V22.0558C32.4195 16.7624 29.6075 14.3017 25.855 14.3017C22.8292 14.3017 21.4731 15.9708 20.7131 17.1463V17.2059H20.6751C20.6877 17.186 20.7004 17.1661 20.7131 17.1463V14.7094H15.0131C15.0844 16.3261 15.0131 31.9368 15.0131 31.9368H20.7131Z" fill="white"/>
</g>
<defs>
<clipPath id="clip0_857_323">
<rect width="38" height="38.1506" fill="white" transform="translate(0.166992)"/>
</clipPath>
</defs>
</svg>
