<svg width="38" height="38" viewBox="0 0 38 38" fill="none" xmlns="http://www.w3.org/2000/svg">
<g clip-path="url(#clip0_39_91)">
<path d="M0.158828 18.7667C0.157789 22.0743 1.02867 25.3033 2.68434 28.1495L0 37.8744L10.0301 35.2649C12.7937 36.76 15.9052 37.5483 19.0714 37.5494H19.0796C29.507 37.5494 37.9955 29.1294 38 18.7817C38.0018 13.7669 36.0353 9.05122 32.4633 5.50381C28.8908 1.95685 24.1408 0.00206202 19.0796 0C8.65034 0 0.162984 8.41891 0.158828 18.7667ZM6.13195 27.6593L5.75745 27.0694C4.18312 24.5856 3.35216 21.7152 3.35335 18.7679C3.35677 10.1671 10.4111 3.16961 19.0855 3.16961C23.2863 3.17138 27.2341 4.79625 30.2035 7.74434C33.1727 10.6927 34.8065 14.612 34.8055 18.7805C34.8016 27.3814 27.7471 34.3797 19.0796 34.3797H19.0733C16.2511 34.3782 13.4832 33.6262 11.0693 32.205L10.4948 31.867L4.54278 33.4154L6.13195 27.6591V27.6593Z" fill="white"/>
<path d="M14.3505 10.921C13.9964 10.14 13.6236 10.1242 13.2868 10.1105C13.011 10.0987 12.6957 10.0996 12.3808 10.0996C12.0655 10.0996 11.5532 10.2173 11.1202 10.6864C10.6868 11.156 9.46545 12.2907 9.46545 14.5985C9.46545 16.9065 11.1596 19.1368 11.3957 19.4501C11.6322 19.7628 14.6663 24.6504 19.4715 26.5306C23.465 28.0932 24.2777 27.7824 25.1445 27.7041C26.0113 27.626 27.9416 26.5697 28.3354 25.4743C28.7295 24.3791 28.7295 23.4403 28.6114 23.2441C28.4932 23.0486 28.1779 22.9313 27.7052 22.6968C27.2322 22.4621 24.908 21.3273 24.4747 21.1707C24.0413 21.0143 23.7261 20.9363 23.4109 21.4059C23.0956 21.8749 22.1903 22.9313 21.9143 23.2441C21.6387 23.5577 21.3627 23.5967 20.8901 23.3621C20.417 23.1267 18.8945 22.632 17.0882 21.034C15.6828 19.7907 14.7339 18.2552 14.4581 17.7855C14.1824 17.3165 14.4286 17.0623 14.6657 16.8286C14.8781 16.6184 15.1386 16.2808 15.3752 16.007C15.6109 15.7331 15.6896 15.5376 15.8472 15.2248C16.005 14.9116 15.926 14.6377 15.808 14.4031C15.6896 14.1684 14.7709 11.8485 14.3505 10.921Z" fill="white"/>
</g>
<defs>
<clipPath id="clip0_39_91">
<rect width="38" height="38" fill="white"/>
</clipPath>
</defs>
</svg>
